<svg xmlns="http://www.w3.org/2000/svg" viewBox="0 0 25.74 25.74"><defs><style>.cls-1{fill:#fff;}</style></defs><title>bicycle</title><g id="Ebene_2" data-name="Ebene 2"><g id="Ebene_1-2" data-name="Ebene 1"><path class="cls-1" d="M25.74,25.74H0V0H25.74ZM1,24.74H24.74V1H1Z"/><path class="cls-1" d="M22.49,16.72a4,4,0,0,0-2.86-1.19,4,4,0,0,0-1,.14c-.64-1.86-1.3-3.78-1.36-4a1.43,1.43,0,0,0-1.48-1.08H14.09v.65h1.66a.78.78,0,0,1,.85.62L17,13H9.39l-.26-.63,1.8-.61a.19.19,0,0,0-.09-.37H7.44l-.09.9,1,0,.41,1L7.57,15.82a4,4,0,0,0-1.49-.29,4.05,4.05,0,1,0,2.86,6.92,4.12,4.12,0,0,0,1.18-2.56H12a.37.37,0,0,0,.23-.1l5.33-5.15c.14.42.28.81.43,1.25a4,4,0,1,0,5.71,3.69A4,4,0,0,0,22.49,16.72Zm-14.62,0a3.48,3.48,0,0,1,.6.49,3.33,3.33,0,0,1,1,2H6.63ZM6.08,23a3.39,3.39,0,1,1,0-6.77,3.48,3.48,0,0,1,1.2.21l-1.47,3a.31.31,0,0,0,0,.32.33.33,0,0,0,.28.16H9.45A3.39,3.39,0,0,1,6.08,23Zm4-3.74a4,4,0,0,0-1.17-2.51,4.11,4.11,0,0,0-.78-.61l1-2,2.15,5.1ZM12,19.11,9.66,13.68h7.55l.09.26ZM19.63,23a3.39,3.39,0,0,1-2.4-5.78,3.28,3.28,0,0,1,.95-.67c.54,1.58,1,3,1.07,3.12a.33.33,0,0,0,.42.2.33.33,0,0,0,.2-.42s-.5-1.48-1.07-3.12a3.32,3.32,0,0,1,.83-.11,3.39,3.39,0,1,1,0,6.78Z"/></g></g></svg>