<svg xmlns="http://www.w3.org/2000/svg" viewBox="0 0 25.74 25.74"><defs><style>.cls-1{fill:#fff;}</style></defs><title>wheelchair</title><g id="Ebene_2" data-name="Ebene 2"><g id="Ebene_1-2" data-name="Ebene 1"><path class="cls-1" d="M25.74,25.74H0V0H25.74ZM1,24.74H24.74V1H1Z"/><path class="cls-1" d="M6.4,12.47a5.21,5.21,0,0,0-3.19,4.8,5.21,5.21,0,0,0,5.21,5.2,5.2,5.2,0,0,0,5.2-5.2h1.14a6.35,6.35,0,1,1-8.54-6l.18,1.16"/><path class="cls-1" d="M8.15,5.42A1.66,1.66,0,1,0,6.53,3.77,1.64,1.64,0,0,0,8.15,5.42"/><path class="cls-1" d="M11,12l.3,1.6a.14.14,0,0,0,.13.12h5.16a.16.16,0,0,1,.14.11l1.89,7.86a1,1,0,0,1-.77,1.14,1,1,0,0,1-1.15-.76l-1.3-5.75a.14.14,0,0,0-.14-.11H8.06a.14.14,0,0,1-.14-.12L6.74,8.57c0-.11,0-.22,0-.34a1.81,1.81,0,0,1,3.57-.42l.43,2.67h2.71a.77.77,0,0,1,.74.78.76.76,0,0,1-.8.74H11"/></g></g></svg>